<mxfile host="app.diagrams.net" modified="2024-02-29T10:25:04.504Z" agent="Mozilla/5.0 (Windows NT 10.0; Win64; x64) AppleWebKit/537.36 (KHTML, like Gecko) Chrome/121.0.0.0 Safari/537.36" version="23.1.8" etag="wEYD_nmq1MvrJPa5ccnT" type="github">
  <diagram name="Lapa-1" id="sj9P8ejoazvO-YFiz5xZ">
    <mxGraphModel>
      <root>
        <mxCell id="0" />
        <mxCell id="1" parent="0" />
      </root>
    </mxGraphModel>
  </diagram>
</mxfile>
